<svg width="48" height="48" fill="none" xmlns="http://www.w3.org/2000/svg" class="cursor-pointer" href="https://discord.gg/DtGv4fWWdp"><g clip-path="url(#discord_svg__a)" fill="#EBD097"><path d="M21.328 22.068a1.337 1.337 0 0 0 0 2.664 1.278 1.278 0 0 0 1.224-1.332 1.27 1.27 0 0 0-1.224-1.332Zm4.38 0a1.336 1.336 0 1 0 1.224 1.332 1.275 1.275 0 0 0-1.224-1.332Z"></path><path d="M31.54 12H15.46A2.467 2.467 0 0 0 13 14.472V30.7a2.466 2.466 0 0 0 2.46 2.472h13.608l-.636-2.22 1.536 1.428 1.452 1.34L34 36V14.472A2.466 2.466 0 0 0 31.54 12Zm-4.632 15.672s-.432-.516-.792-.972c.87-.205 1.64-.71 2.172-1.428a6.863 6.863 0 0 1-1.38.708 7.898 7.898 0 0 1-1.74.516 8.406 8.406 0 0 1-3.108-.012 10.07 10.07 0 0 1-1.76-.516 6.847 6.847 0 0 1-1.368-.708 3.732 3.732 0 0 0 2.1 1.416c-.36.456-.8 1-.8 1a4.351 4.351 0 0 1-3.66-1.824 16.07 16.07 0 0 1 1.728-7 5.934 5.934 0 0 1 3.372-1.26l.12.144a8.1 8.1 0 0 0-3.164 1.572s.264-.144.708-.348a9.013 9.013 0 0 1 2.724-.76c.066-.014.133-.022.2-.024a10.153 10.153 0 0 1 2.424-.024 9.781 9.781 0 0 1 3.616 1.156 7.985 7.985 0 0 0-2.988-1.524l.168-.192a5.934 5.934 0 0 1 3.372 1.26 16.07 16.07 0 0 1 1.728 7 4.386 4.386 0 0 1-3.672 1.82Z"></path></g><rect x="0.5" y="0.5" width="47" height="47" rx="3.5" stroke="#fff" stroke-opacity="0.2"></rect><defs><clipPath id="discord_svg__a"><path fill="#fff" transform="translate(12 12)" d="M0 0h24v24H0z"></path></clipPath></defs></svg>