<svg xmlns="http://www.w3.org/2000/svg" xmlns:xlink="http://www.w3.org/1999/xlink" width="500" zoomAndPan="magnify" viewBox="0 0 375 374.999991" height="500" preserveAspectRatio="xMidYMid meet" version="1.0"><defs><clipPath id="29dfe4bece"><path d="M 110 49.367188 L 152 49.367188 L 152 103 L 110 103 Z M 110 49.367188 " clip-rule="nonzero"/></clipPath><clipPath id="ee35c166dd"><path d="M 67.324219 49.367188 L 307 49.367188 L 307 325.367188 L 67.324219 325.367188 Z M 67.324219 49.367188 " clip-rule="nonzero"/></clipPath></defs><g clip-path="url(#29dfe4bece)"><path fill="#303484" d="M 146.917969 102.921875 C 145.542969 102.921875 144.191406 102.289062 143.320312 101.089844 L 111.277344 57.011719 C 109.832031 55.027344 110.273438 52.246094 112.257812 50.796875 C 114.242188 49.351562 117.023438 49.789062 118.46875 51.78125 L 150.511719 95.855469 C 151.957031 97.84375 151.515625 100.625 149.53125 102.070312 C 148.742188 102.644531 147.824219 102.921875 146.917969 102.921875 " fill-opacity="1" fill-rule="nonzero"/></g><g clip-path="url(#ee35c166dd)"><path fill="#5053d6" d="M 169.148438 298.675781 L 169.148438 240.839844 L 228.371094 292.261719 L 230.664062 298.675781 L 169.148438 298.675781 M 305.265625 264.015625 L 305.265625 263.972656 C 297.882812 202.578125 255.90625 175.925781 224.867188 164.582031 C 205.613281 157.511719 190.628906 156.308594 190.628906 156.308594 L 189.914062 145.722656 L 186.179688 89.574219 L 132.820312 49.535156 L 132.820312 89.574219 L 88.351562 120.71875 C 88.351562 120.71875 83.902344 142.960938 141.710938 129.613281 C 141.710938 129.613281 133.039062 145.277344 128.683594 166.808594 C 126.058594 179.707031 125.035156 194.703125 128.371094 209.695312 C 128.371094 209.695312 129.484375 216.148438 131.128906 225.625 C 134.242188 244.042969 139.175781 273.847656 141 289.777344 C 141.445312 293.691406 141.710938 296.804688 141.710938 298.675781 L 80.96875 298.675781 C 75.144531 298.675781 70.207031 302.367188 68.382812 307.570312 C 67.894531 308.953125 67.628906 310.464844 67.628906 312.019531 C 67.628906 319.40625 73.589844 325.367188 80.96875 325.367188 L 288.945312 325.367188 C 298.503906 325.367188 307 317.136719 307 307.570312 L 307 276.429688 C 306.820312 272.113281 305.753906 268.019531 305.265625 264.015625 " fill-opacity="1" fill-rule="nonzero"/></g><path fill="#ffffff" d="M 305.265625 263.972656 C 297.882812 202.578125 255.90625 175.925781 224.867188 164.582031 C 205.816406 157.582031 190.945312 156.335938 190.632812 156.308594 C 191.453125 156.375 293.394531 164.9375 305.265625 263.972656 M 190.628906 156.308594 L 189.914062 145.722656 L 186.179688 89.574219 L 190.628906 156.308594 " fill-opacity="1" fill-rule="nonzero"/><path fill="#7375de" d="M 305.265625 263.972656 C 302.152344 263.082031 298.859375 261.4375 295.613281 259.300781 C 293.335938 257.8125 291.066406 256.078125 288.871094 254.183594 L 293.800781 254.183594 C 296.253906 254.183594 298.246094 252.195312 298.246094 249.734375 C 298.246094 247.277344 296.253906 245.285156 293.800781 245.285156 L 284.765625 245.285156 C 283.425781 245.285156 282.226562 245.878906 281.410156 246.8125 C 277.054688 241.910156 273.453125 236.648438 271.335938 231.941406 C 263.066406 213.609375 223.621094 205.246094 223.621094 205.246094 C 223.621094 205.246094 170.261719 193.589844 171.90625 145.1875 C 172.707031 122.230469 168.4375 101.808594 163.679688 86.726562 C 162.121094 81.832031 157.230469 71.023438 155.808594 67.332031 L 186.179688 89.574219 L 189.914062 145.722656 L 190.628906 156.308594 C 190.632812 156.308594 190.632812 156.308594 190.632812 156.308594 C 190.945312 156.335938 205.816406 157.582031 224.867188 164.582031 C 255.90625 175.925781 297.882812 202.578125 305.265625 263.972656 " fill-opacity="1" fill-rule="nonzero"/><path fill="#40d694" d="M 226.214844 165.050781 L 226.214844 164.871094 L 224.867188 164.582031 C 205.703125 157.542969 190.78125 156.320312 190.640625 156.3125 C 164.011719 178.511719 128.308594 169.65625 128.167969 169.621094 C 125.957031 181.871094 125.273438 195.769531 128.371094 209.695312 C 128.371094 209.695312 129.730469 219.203125 131.230469 228.105469 C 139.949219 221.070312 166.765625 199.863281 177.300781 196.347656 C 190.640625 191.898438 226.214844 178.398438 226.214844 165.050781 " fill-opacity="1" fill-rule="nonzero"/><path fill="#19ae67" d="M 142.46875 196.347656 L 133.667969 196.347656 C 131.210938 196.347656 129.222656 194.359375 129.222656 191.898438 C 129.222656 189.441406 131.210938 187.449219 133.667969 187.449219 L 142.46875 187.449219 C 144.921875 187.449219 146.914062 189.441406 146.914062 191.898438 C 146.914062 194.359375 144.921875 196.347656 142.46875 196.347656 " fill-opacity="1" fill-rule="nonzero"/><path fill="#7375de" d="M 288.871094 254.183594 L 284.765625 254.183594 C 282.308594 254.183594 280.316406 252.195312 280.316406 249.734375 C 280.316406 248.617188 280.730469 247.59375 281.410156 246.8125 C 283.722656 249.417969 286.246094 251.917969 288.871094 254.183594 " fill-opacity="1" fill-rule="nonzero"/><path fill="#8f91e5" d="M 293.800781 254.183594 L 288.871094 254.183594 C 286.246094 251.917969 283.722656 249.417969 281.410156 246.8125 C 282.226562 245.878906 283.425781 245.285156 284.765625 245.285156 L 293.800781 245.285156 C 296.253906 245.285156 298.246094 247.277344 298.246094 249.734375 C 298.246094 252.195312 296.253906 254.183594 293.800781 254.183594 " fill-opacity="1" fill-rule="nonzero"/><path fill="#303484" d="M 138.207031 102.921875 L 129.128906 102.921875 C 126.671875 102.921875 124.679688 100.933594 124.679688 98.472656 C 124.679688 96.011719 126.671875 94.023438 129.128906 94.023438 L 138.207031 94.023438 C 140.660156 94.023438 142.652344 96.011719 142.652344 98.472656 C 142.652344 100.933594 140.660156 102.921875 138.207031 102.921875 " fill-opacity="1" fill-rule="nonzero"/><path fill="#7375de" d="M 235.363281 307.570312 L 68.382812 307.570312 C 70.207031 302.367188 75.144531 298.675781 80.96875 298.675781 L 255.492188 298.675781 C 255.492188 306.726562 243.410156 307.570312 235.363281 307.570312 " fill-opacity="1" fill-rule="nonzero"/><path fill="#303484" d="M 230.664062 298.675781 L 235.085938 298.675781 C 235.085938 298.140625 235.015625 297.601562 234.816406 297.074219 C 214.609375 244.519531 244.257812 232.171875 245.589844 231.648438 C 247.871094 230.777344 249.027344 228.222656 248.167969 225.925781 C 247.304688 223.628906 244.742188 222.472656 242.441406 223.324219 C 241.929688 223.515625 229.832031 228.199219 223.171875 243.027344 C 216.652344 257.53125 217.625 276.265625 225.953125 298.675781 L 230.664062 298.675781 " fill-opacity="1" fill-rule="nonzero"/></svg>