<svg xmlns="http://www.w3.org/2000/svg" xmlns:xlink="http://www.w3.org/1999/xlink" width="500" zoomAndPan="magnify" viewBox="0 0 375 374.999991" height="500" preserveAspectRatio="xMidYMid meet" version="1.0"><defs><clipPath id="6d8b4f0fec"><path d="M 84.144531 68.699219 L 291 68.699219 L 291 306.449219 L 84.144531 306.449219 Z M 84.144531 68.699219 " clip-rule="nonzero"/></clipPath></defs><path fill="#303484" d="M 152.796875 114.832031 C 151.609375 114.832031 150.441406 114.285156 149.691406 113.253906 L 122.054688 75.285156 C 120.808594 73.574219 121.1875 71.179688 122.898438 69.933594 C 124.613281 68.6875 127.007812 69.066406 128.257812 70.78125 L 155.894531 108.746094 C 157.140625 110.457031 156.757812 112.851562 155.046875 114.101562 C 154.367188 114.59375 153.574219 114.832031 152.796875 114.832031 " fill-opacity="1" fill-rule="nonzero"/><g clip-path="url(#6d8b4f0fec)"><path fill="#5053d6" d="M 171.96875 283.457031 L 171.96875 233.636719 L 223.046875 277.933594 L 225.023438 283.457031 L 171.96875 283.457031 M 289.367188 253.601562 L 289.367188 253.566406 C 283 200.675781 246.792969 177.722656 220.023438 167.949219 C 203.417969 161.855469 190.492188 160.820312 190.492188 160.820312 L 189.878906 151.699219 L 186.65625 103.335938 L 140.632812 68.84375 L 140.632812 103.335938 L 102.28125 130.164062 C 102.28125 130.164062 98.445312 149.324219 148.304688 137.828125 C 148.304688 137.828125 140.824219 151.316406 137.066406 169.867188 C 134.804688 180.980469 133.921875 193.894531 136.796875 206.808594 C 136.796875 206.808594 137.757812 212.367188 139.175781 220.53125 C 141.859375 236.394531 146.117188 262.070312 147.691406 275.792969 C 148.074219 279.164062 148.304688 281.847656 148.304688 283.457031 L 95.914062 283.457031 C 90.886719 283.457031 86.632812 286.636719 85.058594 291.121094 C 84.636719 292.308594 84.40625 293.613281 84.40625 294.953125 C 84.40625 301.316406 89.546875 306.449219 95.914062 306.449219 L 275.292969 306.449219 C 283.539062 306.449219 290.863281 299.359375 290.863281 291.121094 L 290.863281 264.296875 C 290.710938 260.578125 289.789062 257.050781 289.367188 253.601562 " fill-opacity="1" fill-rule="nonzero"/></g><path fill="#ffffff" d="M 289.367188 253.566406 C 283 200.675781 246.792969 177.722656 220.023438 167.949219 C 203.59375 161.917969 190.765625 160.84375 190.496094 160.820312 C 191.203125 160.878906 279.128906 168.257812 289.367188 253.566406 M 190.492188 160.820312 L 189.878906 151.699219 L 186.65625 103.335938 L 190.492188 160.820312 " fill-opacity="1" fill-rule="nonzero"/><path fill="#7375de" d="M 289.367188 253.566406 C 286.683594 252.796875 283.84375 251.378906 281.042969 249.539062 C 279.082031 248.257812 277.125 246.765625 275.230469 245.132812 L 279.480469 245.132812 C 281.597656 245.132812 283.3125 243.417969 283.3125 241.300781 C 283.3125 239.183594 281.597656 237.46875 279.480469 237.46875 L 271.6875 237.46875 C 270.53125 237.46875 269.496094 237.976562 268.792969 238.785156 C 265.035156 234.558594 261.929688 230.027344 260.105469 225.972656 C 252.972656 210.183594 218.949219 202.976562 218.949219 202.976562 C 218.949219 202.976562 172.925781 192.9375 174.347656 151.242188 C 175.035156 131.464844 171.355469 113.875 167.25 100.882812 C 165.90625 96.667969 161.6875 87.355469 160.460938 84.175781 L 186.65625 103.335938 L 189.878906 151.699219 L 190.492188 160.820312 C 190.492188 160.820312 190.492188 160.820312 190.496094 160.820312 C 190.765625 160.84375 203.59375 161.917969 220.023438 167.949219 C 246.792969 177.722656 283 200.675781 289.367188 253.566406 " fill-opacity="1" fill-rule="nonzero"/><path fill="#40d694" d="M 221.1875 168.351562 L 221.1875 168.195312 L 220.023438 167.949219 C 203.496094 161.886719 190.625 160.832031 190.503906 160.824219 C 167.539062 179.945312 136.742188 172.320312 136.621094 172.289062 C 134.714844 182.839844 134.125 194.816406 136.796875 206.808594 C 136.796875 206.808594 137.96875 215 139.261719 222.667969 C 146.785156 216.609375 169.914062 198.339844 179 195.3125 C 190.507812 191.480469 221.1875 179.851562 221.1875 168.351562 " fill-opacity="1" fill-rule="nonzero"/><path fill="#19ae67" d="M 148.957031 195.3125 L 141.367188 195.3125 C 139.246094 195.3125 137.53125 193.597656 137.53125 191.480469 C 137.53125 189.363281 139.246094 187.648438 141.367188 187.648438 L 148.957031 187.648438 C 151.074219 187.648438 152.792969 189.363281 152.792969 191.480469 C 152.792969 193.597656 151.074219 195.3125 148.957031 195.3125 " fill-opacity="1" fill-rule="nonzero"/><path fill="#7375de" d="M 275.230469 245.132812 L 271.6875 245.132812 C 269.570312 245.132812 267.851562 243.417969 267.851562 241.300781 C 267.851562 240.335938 268.207031 239.457031 268.792969 238.785156 C 270.789062 241.027344 272.964844 243.179688 275.230469 245.132812 " fill-opacity="1" fill-rule="nonzero"/><path fill="#8f91e5" d="M 279.480469 245.132812 L 275.230469 245.132812 C 272.964844 243.179688 270.789062 241.027344 268.792969 238.785156 C 269.496094 237.976562 270.53125 237.46875 271.6875 237.46875 L 279.480469 237.46875 C 281.597656 237.46875 283.3125 239.183594 283.3125 241.300781 C 283.3125 243.417969 281.597656 245.132812 279.480469 245.132812 " fill-opacity="1" fill-rule="nonzero"/><path fill="#303484" d="M 145.28125 114.832031 L 137.449219 114.832031 C 135.332031 114.832031 133.613281 113.117188 133.613281 111 C 133.613281 108.882812 135.332031 107.167969 137.449219 107.167969 L 145.28125 107.167969 C 147.398438 107.167969 149.117188 108.882812 149.117188 111 C 149.117188 113.117188 147.398438 114.832031 145.28125 114.832031 " fill-opacity="1" fill-rule="nonzero"/><path fill="#7375de" d="M 229.078125 291.121094 L 85.058594 291.121094 C 86.632812 286.636719 90.886719 283.457031 95.914062 283.457031 L 246.441406 283.457031 C 246.441406 290.394531 236.019531 291.121094 229.078125 291.121094 " fill-opacity="1" fill-rule="nonzero"/><path fill="#303484" d="M 225.023438 283.457031 L 228.839844 283.457031 C 228.839844 283 228.777344 282.53125 228.605469 282.078125 C 211.175781 236.804688 236.75 226.171875 237.898438 225.722656 C 239.867188 224.96875 240.863281 222.769531 240.121094 220.792969 C 239.375 218.8125 237.167969 217.816406 235.183594 218.550781 C 234.742188 218.714844 224.308594 222.75 218.5625 235.523438 C 212.9375 248.015625 213.78125 264.15625 220.960938 283.457031 L 225.023438 283.457031 " fill-opacity="1" fill-rule="nonzero"/></svg>